<mxfile host="Electron" modified="2024-08-25T12:24:19.305Z" agent="Mozilla/5.0 (Macintosh; Intel Mac OS X 10_15_7) AppleWebKit/537.36 (KHTML, like Gecko) draw.io/23.1.5 Chrome/120.0.6099.109 Electron/28.1.0 Safari/537.36" etag="8426zdZu4UaI8Yja9uHZ" version="23.1.5" type="device" pages="2">
  <diagram name="transport" id="Rr5eI9MLRJFNtAzdQJJq">
    <mxGraphModel dx="1428" dy="896" grid="0" gridSize="10" guides="1" tooltips="1" connect="1" arrows="1" fold="1" page="0" pageScale="1" pageWidth="1654" pageHeight="1169" math="0" shadow="0">
      <root>
        <mxCell id="0" />
        <mxCell id="1" parent="0" />
        <mxCell id="LapiSbeTnw3ea9XKuIie-1" value="Account dev" style="points=[[0,0],[0.25,0],[0.5,0],[0.75,0],[1,0],[1,0.25],[1,0.5],[1,0.75],[1,1],[0.75,1],[0.5,1],[0.25,1],[0,1],[0,0.75],[0,0.5],[0,0.25]];outlineConnect=0;gradientColor=none;html=1;whiteSpace=wrap;fontSize=12;fontStyle=0;container=1;pointerEvents=0;collapsible=0;recursiveResize=0;shape=mxgraph.aws4.group;grIcon=mxgraph.aws4.group_aws_cloud_alt;strokeColor=#232F3E;fillColor=none;verticalAlign=top;align=left;spacingLeft=30;fontColor=#232F3E;dashed=0;" parent="1" vertex="1">
          <mxGeometry x="200" y="80" width="200" height="240" as="geometry" />
        </mxCell>
        <mxCell id="LapiSbeTnw3ea9XKuIie-5" value="Code" style="verticalLabelPosition=bottom;html=1;verticalAlign=top;align=center;strokeColor=none;fillColor=#00BEF2;shape=mxgraph.azure.code_file;pointerEvents=1;" parent="LapiSbeTnw3ea9XKuIie-1" vertex="1">
          <mxGeometry x="60" y="100" width="47.5" height="50" as="geometry" />
        </mxCell>
        <mxCell id="LapiSbeTnw3ea9XKuIie-4" value="" style="outlineConnect=0;dashed=0;verticalLabelPosition=bottom;verticalAlign=top;align=center;html=1;shape=mxgraph.aws3.lambda_function;fillColor=#F58534;gradientColor=none;" parent="LapiSbeTnw3ea9XKuIie-1" vertex="1">
          <mxGeometry x="20" y="50" width="69" height="72" as="geometry" />
        </mxCell>
        <mxCell id="LapiSbeTnw3ea9XKuIie-2" value="Account test" style="points=[[0,0],[0.25,0],[0.5,0],[0.75,0],[1,0],[1,0.25],[1,0.5],[1,0.75],[1,1],[0.75,1],[0.5,1],[0.25,1],[0,1],[0,0.75],[0,0.5],[0,0.25]];outlineConnect=0;gradientColor=none;html=1;whiteSpace=wrap;fontSize=12;fontStyle=0;container=1;pointerEvents=0;collapsible=0;recursiveResize=0;shape=mxgraph.aws4.group;grIcon=mxgraph.aws4.group_aws_cloud_alt;strokeColor=#232F3E;fillColor=none;verticalAlign=top;align=left;spacingLeft=30;fontColor=#232F3E;dashed=0;" parent="1" vertex="1">
          <mxGeometry x="560" y="80" width="280" height="240" as="geometry" />
        </mxCell>
        <mxCell id="LapiSbeTnw3ea9XKuIie-6" value="Code" style="verticalLabelPosition=bottom;html=1;verticalAlign=top;align=center;strokeColor=#82b366;fillColor=#d5e8d4;shape=mxgraph.azure.code_file;pointerEvents=1;" parent="LapiSbeTnw3ea9XKuIie-2" vertex="1">
          <mxGeometry x="80" y="100" width="47.5" height="50" as="geometry" />
        </mxCell>
        <mxCell id="LapiSbeTnw3ea9XKuIie-7" value="" style="outlineConnect=0;dashed=0;verticalLabelPosition=bottom;verticalAlign=top;align=center;html=1;shape=mxgraph.aws3.lambda_function;fillColor=#F58534;gradientColor=none;" parent="LapiSbeTnw3ea9XKuIie-2" vertex="1">
          <mxGeometry x="40" y="50" width="69" height="72" as="geometry" />
        </mxCell>
        <mxCell id="LapiSbeTnw3ea9XKuIie-8" value="Transport" style="shape=flexArrow;endArrow=classic;html=1;rounded=0;entryX=0.04;entryY=0.96;entryDx=0;entryDy=0;entryPerimeter=0;exitX=0.96;exitY=0.96;exitDx=0;exitDy=0;exitPerimeter=0;fontSize=14;fontStyle=1;width=22.448979591836732;endSize=6.938775510204081;" parent="1" source="LapiSbeTnw3ea9XKuIie-5" target="LapiSbeTnw3ea9XKuIie-6" edge="1">
          <mxGeometry width="50" height="50" relative="1" as="geometry">
            <mxPoint x="450" y="270" as="sourcePoint" />
            <mxPoint x="500" y="220" as="targetPoint" />
          </mxGeometry>
        </mxCell>
      </root>
    </mxGraphModel>
  </diagram>
  <diagram name="distributed testing" id="k7_VDINix0rZ94NS1X6p">
    <mxGraphModel dx="1428" dy="896" grid="0" gridSize="10" guides="1" tooltips="1" connect="1" arrows="1" fold="1" page="0" pageScale="1" pageWidth="1654" pageHeight="1169" math="0" shadow="0">
      <root>
        <mxCell id="-CbfJ0Fq1fuMmHT9jVr1-0" />
        <mxCell id="-CbfJ0Fq1fuMmHT9jVr1-1" parent="-CbfJ0Fq1fuMmHT9jVr1-0" />
        <mxCell id="-CbfJ0Fq1fuMmHT9jVr1-5" value="Account test" style="points=[[0,0],[0.25,0],[0.5,0],[0.75,0],[1,0],[1,0.25],[1,0.5],[1,0.75],[1,1],[0.75,1],[0.5,1],[0.25,1],[0,1],[0,0.75],[0,0.5],[0,0.25]];outlineConnect=0;gradientColor=none;html=1;whiteSpace=wrap;fontSize=12;fontStyle=0;container=1;pointerEvents=0;collapsible=0;recursiveResize=0;shape=mxgraph.aws4.group;grIcon=mxgraph.aws4.group_aws_cloud_alt;strokeColor=#232F3E;fillColor=none;verticalAlign=top;align=left;spacingLeft=30;fontColor=#232F3E;dashed=0;" vertex="1" parent="-CbfJ0Fq1fuMmHT9jVr1-1">
          <mxGeometry x="249" y="125" width="595" height="442" as="geometry" />
        </mxCell>
        <mxCell id="-CbfJ0Fq1fuMmHT9jVr1-6" value="Code" style="verticalLabelPosition=bottom;html=1;verticalAlign=top;align=center;strokeColor=#82b366;fillColor=#d5e8d4;shape=mxgraph.azure.code_file;pointerEvents=1;" vertex="1" parent="-CbfJ0Fq1fuMmHT9jVr1-5">
          <mxGeometry x="80" y="100" width="47.5" height="50" as="geometry" />
        </mxCell>
        <mxCell id="-CbfJ0Fq1fuMmHT9jVr1-7" value="Tested Lambda" style="outlineConnect=0;dashed=0;verticalLabelPosition=bottom;verticalAlign=top;align=center;html=1;shape=mxgraph.aws3.lambda_function;fillColor=#F58534;gradientColor=none;" vertex="1" parent="-CbfJ0Fq1fuMmHT9jVr1-5">
          <mxGeometry x="40" y="50" width="69" height="72" as="geometry" />
        </mxCell>
        <mxCell id="MIyHHIswpyW2A7dRhyo5-1" value="Mock Code" style="verticalLabelPosition=bottom;html=1;verticalAlign=top;align=center;strokeColor=#6c8ebf;fillColor=#dae8fc;shape=mxgraph.azure.code_file;pointerEvents=1;" vertex="1" parent="-CbfJ0Fq1fuMmHT9jVr1-5">
          <mxGeometry x="413" y="82" width="47.5" height="50" as="geometry" />
        </mxCell>
        <mxCell id="MIyHHIswpyW2A7dRhyo5-0" value="Lambda 1" style="outlineConnect=0;dashed=0;verticalLabelPosition=bottom;verticalAlign=top;align=center;html=1;shape=mxgraph.aws3.lambda_function;fillColor=#5294CF;gradientColor=none;" vertex="1" parent="-CbfJ0Fq1fuMmHT9jVr1-5">
          <mxGeometry x="377" y="39" width="60" height="63" as="geometry" />
        </mxCell>
        <mxCell id="MIyHHIswpyW2A7dRhyo5-2" value="Mock Code" style="verticalLabelPosition=bottom;html=1;verticalAlign=top;align=center;strokeColor=#6c8ebf;fillColor=#dae8fc;shape=mxgraph.azure.code_file;pointerEvents=1;" vertex="1" parent="-CbfJ0Fq1fuMmHT9jVr1-5">
          <mxGeometry x="420" y="235" width="47.5" height="50" as="geometry" />
        </mxCell>
        <mxCell id="MIyHHIswpyW2A7dRhyo5-3" value="Lambda 2" style="outlineConnect=0;dashed=0;verticalLabelPosition=bottom;verticalAlign=top;align=center;html=1;shape=mxgraph.aws3.lambda_function;fillColor=#5294CF;gradientColor=none;" vertex="1" parent="-CbfJ0Fq1fuMmHT9jVr1-5">
          <mxGeometry x="384" y="192" width="60" height="63" as="geometry" />
        </mxCell>
      </root>
    </mxGraphModel>
  </diagram>
</mxfile>
